HIERARCHY
ROOT Hips
{
  OFFSET 5.84602e-005 68.8428 3.50346
  CHANNELS 6 Xposition Yposition Zposition Zrotation Xrotation Yrotation
  JOINT Spine
  {
    OFFSET 0 8.597 -4.6522
    CHANNELS 3 Zrotation Xrotation Yrotation
    JOINT Spine1
    {
      OFFSET 0 7.8454 0.4098
      CHANNELS 3 Zrotation Xrotation Yrotation
      JOINT Spine2
      {
        OFFSET 0 9.7078 -2.1609
        CHANNELS 3 Zrotation Xrotation Yrotation
        JOINT Neck
        {
          OFFSET 0 21.8761 -0.4549
          CHANNELS 3 Zrotation Xrotation Yrotation
          JOINT Head
          {
            OFFSET 0 12.3537 3.3602
            CHANNELS 3 Zrotation Xrotation Yrotation
            End Site
            {
              OFFSET 0.0001 18.9506 0.5657
            }
          }
        }
        JOINT LeftShoulder
        {
          OFFSET 2.2086 21.1115 7.2329
          CHANNELS 3 Zrotation Xrotation Yrotation
          JOINT LeftArm
          {
            OFFSET 13.1193 3.0282 -4.8998
            CHANNELS 3 Zrotation Xrotation Yrotation
            JOINT LeftForeArm
            {
              OFFSET 27.4081 -0.0973053 -0.2375
              CHANNELS 3 Zrotation Xrotation Yrotation
              JOINT LeftHand
              {
                OFFSET 22.8641 0.0662994 -0.1369
                CHANNELS 3 Zrotation Xrotation Yrotation
                JOINT LeftHandIndex1
                {
                  OFFSET 8.8614 0.775009 2.4612
                  CHANNELS 3 Zrotation Xrotation Yrotation
                  JOINT LeftHandIndex2
                  {
                    OFFSET 3.3146 -0.808304 0.5841
                    CHANNELS 3 Zrotation Xrotation Yrotation
                    JOINT LeftHandIndex3
                    {
                      OFFSET 2.2628 -0.552002 0.3989
                      CHANNELS 3 Zrotation Xrotation Yrotation
                      End Site
                      {
                        OFFSET 1.6102 -0.4807 0.2612
                      }
                    }
                  }
                }
                JOINT LeftHandMiddle1
                {
                  OFFSET 8.9937 0.895004 0.2143
                  CHANNELS 3 Zrotation Xrotation Yrotation
                  JOINT LeftHandMiddle2
                  {
                    OFFSET 4.0984 0.0113983 -0.0242
                    CHANNELS 3 Zrotation Xrotation Yrotation
                    JOINT LeftHandMiddle3
                    {
                      OFFSET 2.2716 0.00689697 -0.0138001
                      CHANNELS 3 Zrotation Xrotation Yrotation
                      End Site
                      {
                        OFFSET 2.0404 -0.1441 0.0027
                      }
                    }
                  }
                }
                JOINT LeftHandRing1
                {
                  OFFSET 8.5234 0.597198 -2.0164
                  CHANNELS 3 Zrotation Xrotation Yrotation
                  JOINT LeftHandRing2
                  {
                    OFFSET 3.7188 -0.188293 -0.2328
                    CHANNELS 3 Zrotation Xrotation Yrotation
                    JOINT LeftHandRing3
                    {
                      OFFSET 2.1191 -0.106598 -0.1332
                      CHANNELS 3 Zrotation Xrotation Yrotation
                      End Site
                      {
                        OFFSET 1.8737 -0.2304 -0.0886
                      }
                    }
                  }
                }
                JOINT LeftHandPinky1
                {
                  OFFSET 7.9094 -0.601089 -3.4825
                  CHANNELS 3 Zrotation Xrotation Yrotation
                  JOINT LeftHandPinky2
                  {
                    OFFSET 2.2874 -0.477005 -0.6314
                    CHANNELS 3 Zrotation Xrotation Yrotation
                    JOINT LeftHandPinky3
                    {
                      OFFSET 1.6774 -0.349396 -0.4633
                      CHANNELS 3 Zrotation Xrotation Yrotation
                      End Site
                      {
                        OFFSET 1.4888 -0.4091 -0.3416
                      }
                    }
                  }
                }
                JOINT LeftHandThumb1
                {
                  OFFSET 1.833 -1.3875 1.3896
                  CHANNELS 3 Zrotation Xrotation Yrotation
                  JOINT LeftHandThumb2
                  {
                    OFFSET 3.4129 -1.121 2.5732
                    CHANNELS 3 Zrotation Xrotation Yrotation
                    JOINT LeftHandThumb3
                    {
                      OFFSET 2.2474 -0.804199 1.6192
                      CHANNELS 3 Zrotation Xrotation Yrotation
                      End Site
                      {
                        OFFSET 1.6527 -0.5689 1.1317
                      }
                    }
                  }
                }
              }
            }
          }
        }
        JOINT RightShoulder
        {
          OFFSET -2.2086 21.1115 7.2329
          CHANNELS 3 Zrotation Xrotation Yrotation
          JOINT RightArm
          {
            OFFSET -13.1216 3.0287 -4.9007
            CHANNELS 3 Zrotation Xrotation Yrotation
            JOINT RightForeArm
            {
              OFFSET -27.4081 -0.0973053 -0.2375
              CHANNELS 3 Zrotation Xrotation Yrotation
              JOINT RightHand
              {
                OFFSET -22.8641 0.0664063 -0.1369
                CHANNELS 3 Zrotation Xrotation Yrotation
                JOINT RightHandIndex1
                {
                  OFFSET -8.8614 0.774994 2.4612
                  CHANNELS 3 Zrotation Xrotation Yrotation
                  JOINT RightHandIndex2
                  {
                    OFFSET -3.3146 -0.808304 0.5841
                    CHANNELS 3 Zrotation Xrotation Yrotation
                    JOINT RightHandIndex3
                    {
                      OFFSET -2.2628 -0.552002 0.3989
                      CHANNELS 3 Zrotation Xrotation Yrotation
                      End Site
                      {
                        OFFSET -1.6102 -0.4807 0.2612
                      }
                    }
                  }
                }
                JOINT RightHandMiddle1
                {
                  OFFSET -8.9937 0.894989 0.2143
                  CHANNELS 3 Zrotation Xrotation Yrotation
                  JOINT RightHandMiddle2
                  {
                    OFFSET -4.0984 0.0113983 -0.0242
                    CHANNELS 3 Zrotation Xrotation Yrotation
                    JOINT RightHandMiddle3
                    {
                      OFFSET -2.2716 0.00691223 -0.0138001
                      CHANNELS 3 Zrotation Xrotation Yrotation
                      End Site
                      {
                        OFFSET -2.0404 -0.1441 0.0027
                      }
                    }
                  }
                }
                JOINT RightHandRing1
                {
                  OFFSET -8.5234 0.597198 -2.0164
                  CHANNELS 3 Zrotation Xrotation Yrotation
                  JOINT RightHandRing2
                  {
                    OFFSET -3.7188 -0.188309 -0.2328
                    CHANNELS 3 Zrotation Xrotation Yrotation
                    JOINT RightHandRing3
                    {
                      OFFSET -2.1191 -0.106598 -0.1332
                      CHANNELS 3 Zrotation Xrotation Yrotation
                      End Site
                      {
                        OFFSET -1.8737 -0.2304 -0.0886
                      }
                    }
                  }
                }
                JOINT RightHandPinky1
                {
                  OFFSET -7.9094 -0.601105 -3.4825
                  CHANNELS 3 Zrotation Xrotation Yrotation
                  JOINT RightHandPinky2
                  {
                    OFFSET -2.2874 -0.477005 -0.6314
                    CHANNELS 3 Zrotation Xrotation Yrotation
                    JOINT RightHandPinky3
                    {
                      OFFSET -1.6774 -0.349396 -0.4633
                      CHANNELS 3 Zrotation Xrotation Yrotation
                      End Site
                      {
                        OFFSET -1.4888 -0.4091 -0.3416
                      }
                    }
                  }
                }
                JOINT RightHandThumb1
                {
                  OFFSET -1.833 -1.38751 1.3896
                  CHANNELS 3 Zrotation Xrotation Yrotation
                  JOINT RightHandThumb2
                  {
                    OFFSET -3.41299 -1.12099 2.5732
                    CHANNELS 3 Zrotation Xrotation Yrotation
                    JOINT RightHandThumb3
                    {
                      OFFSET -2.24741 -0.804108 1.6192
                      CHANNELS 3 Zrotation Xrotation Yrotation
                      End Site
                      {
                        OFFSET -1.6527 -0.5689 1.1317
                      }
                    }
                  }
                }
              }
            }
          }
        }
      }
    }
  }
  JOINT RightUpLeg
  {
    OFFSET -9.1966 3.8861 -0.7581
    CHANNELS 3 Zrotation Xrotation Yrotation
    JOINT RightLeg
    {
      OFFSET -0.7359 -41.0265 0
      CHANNELS 3 Zrotation Xrotation Yrotation
      JOINT RightFoot
      {
        OFFSET 0 -40.2855 0
        CHANNELS 3 Zrotation Xrotation Yrotation
        JOINT RightToeBase
        {
          OFFSET 0 -5.6122 11.7359
          CHANNELS 3 Zrotation Xrotation Yrotation
          End Site
          {
            OFFSET 0 0 7.8731
          }
        }
      }
    }
  }
  JOINT LeftUpLeg
  {
    OFFSET 9.1965 3.8864 -0.7581
    CHANNELS 3 Zrotation Xrotation Yrotation
    JOINT LeftLeg
    {
      OFFSET 0.7359 -41.0268 0
      CHANNELS 3 Zrotation Xrotation Yrotation
      JOINT LeftFoot
      {
        OFFSET 0 -40.2855 0
        CHANNELS 3 Zrotation Xrotation Yrotation
        JOINT LeftToeBase
        {
          OFFSET 0 -5.6122 11.7359
          CHANNELS 3 Zrotation Xrotation Yrotation
          End Site
          {
            OFFSET 0 0 7.8731
          }
        }
      }
    }
  }
}
MOTION
Frames:	7
Frame Time:	0.0333333
5.84602e-005 68.8428 3.50346 0 0 -0 0 0 -0 0 0 -0 0 0 -0 0 0 -0 0 0 -0 0 0 -0 0 0 -0 0 0 -0 0 0 -0 0 0 -0 0 0 -0 0 0 -0 0 0 -0 -0.0146107 -8.87603e-005 -2.63497e-007 2.99804e-018 -2.42657e-020 -1.42182e-022 0 0 -0 -0.0187562 -0.001176 5.858e-005 5.06224e-018 3.88251e-019 1.21329e-020 0 0 -0 -0.012269 -0.00324817 0.000675346 -1.74678e-018 3.88251e-019 -0 0 0 -0 0 0 -0 0 0 -0 0 0 -0 0 0 -0 0 0 -0 0 0 -0 0 0 -0 0 0 -0 0 0 -0 0 0 -0 0.0149955 -9.10982e-005 2.64101e-007 -9.69331e-018 1.21329e-020 -4.7394e-023 0 0 -0 0.0189956 -0.00119102 -5.96516e-005 -5.41541e-019 0 2.42657e-020 0 0 -0 0.0122698 -0.00324857 -0.000673756 -2.00796e-019 0 -1.94126e-019 0 0 -0 0 0 -0 0 0 -0 3.39842 1.33031 -0.0637918 -5.65207e-008 0.834868 -0.000436188 -3.39935 -2.16518 -0.0642563 -8.89002e-024 -1.18485e-023 -1.48106e-024 -3.39844 1.35642 0.0640283 -3.18788e-007 0.782166 -0.000588827 3.39931 -2.13858 0.0634662 1.1399e-023 0 -0 
0.810644 17.7233 20.3133 178.616 -73.0001 -1.01316 -0.0687108 -4.94944 -0.290608 -0.163649 -9.89831 -0.590522 -0.16365 -9.89832 -0.590523 0.0924693 0.215199 0.106485 -3.94805e-007 0.159115 -2.70812e-007 15.3751 -0.695551 -8.76716 -18.249 -16.3019 -33.872 2.31879 7.96227 -54.3554 59.999 8.56571e-006 6.46441e-006 -4.42375e-007 -1.04298e-006 -3.97539e-007 -5.80169e-007 -6.17962e-007 -3.73452e-008 -1.16034e-006 -1.23592e-006 -7.46905e-008 -4.42375e-007 -1.04298e-006 -3.97539e-007 -0.0146353 -8.98821e-005 7.92402e-007 -1.16031e-006 -1.23591e-006 -7.48474e-008 -4.42375e-007 -1.04298e-006 -3.97539e-007 -0.0187338 -0.0011757 5.38403e-005 -1.16031e-006 -1.23591e-006 -7.48808e-008 -4.42375e-007 -1.04298e-006 -3.97539e-007 -0.0122247 -0.00323602 0.000674947 -1.16033e-006 -1.2359e-006 -7.47907e-008 -4.42375e-007 -1.04298e-006 -3.97539e-007 -5.80169e-007 -6.17962e-007 -3.73452e-008 -1.16034e-006 -1.23592e-006 -7.46905e-008 18.7136 -0.158841 -1.64147 8.93175 9.94276 46.0406 -12.1079 -13.6494 31.7849 -60.003 3.13495e-006 -3.32856e-006 -1.59028e-015 3.18055e-015 -3.18055e-015 -3.18055e-015 1.59028e-015 -0 -4.77083e-015 -1.59028e-015 -6.36111e-015 -1.59028e-015 3.18055e-015 -3.18055e-015 0.015008 -9.43335e-005 -9.35822e-006 1.59028e-015 -3.18055e-015 -9.54166e-015 -1.59028e-015 3.18055e-015 -3.18055e-015 0.0189738 -0.00118947 -6.72198e-005 -3.18055e-015 1.59028e-015 -3.18055e-015 -1.59028e-015 3.18055e-015 -3.18055e-015 0.0123031 -0.00325817 -0.000686439 -6.36111e-015 0 -1.27222e-014 -1.59028e-015 3.18055e-015 -3.18055e-015 -3.18055e-015 1.59028e-015 -0 -4.77083e-015 -1.59028e-015 -6.36111e-015 -25.2383 -53.3645 -42.3758 5.31028 46.1666 -3.02521 -11.106 49.8961 14.2245 -9.88263e-008 -4.75484e-008 -3.0076e-007 24.5031 -53.0775 41.4246 -5.5411 45.2599 3.45239 10.6726 49.1823 -13.8623 2.80799e-006 2.1262e-006 -3.53395e-008 
0.807832 17.2536 20.0871 178.553 -74.866 -1.0969 -0.0718492 -4.78601 -0.289556 -0.168959 -9.57161 -0.588255 -0.168959 -9.57159 -0.588255 0.132961 0.359664 0.0628864 1.83748e-007 0.0928583 1.78255e-007 14.7321 0.0965923 -9.81133 -18.0917 -16.4128 -33.5933 2.32537 7.96447 -53.2563 59.9171 -0.223219 -0.732701 4.19283e-007 4.84256e-007 -2.66656e-007 -1.59028e-015 1.59028e-015 -3.97569e-016 1.59028e-015 9.93923e-016 -0 4.19283e-007 4.84256e-007 -2.66656e-007 -0.0146065 -8.78882e-005 -4.05615e-006 -1.59028e-015 -1.09332e-015 -3.97569e-016 4.19283e-007 4.84256e-007 -2.66656e-007 -0.0187861 -0.00117938 5.70935e-005 1.51728e-032 1.09332e-015 -7.95139e-016 4.19283e-007 4.84256e-007 -2.66656e-007 -0.012265 -0.00324926 0.000680032 1.59028e-015 1.98785e-015 -7.95139e-016 4.19283e-007 4.84256e-007 -2.66656e-007 -1.59028e-015 1.59028e-015 -3.97569e-016 1.59028e-015 9.93923e-016 -0 19.2088 0.272633 -1.12094 8.8634 9.83802 45.5145 -12.0393 -13.603 31.1921 -59.7481 0.0874222 0.500318 -1.59028e-015 3.18055e-015 -0 3.53113e-031 3.18055e-015 -6.36111e-015 -1.59028e-015 1.59028e-015 -0 -1.59028e-015 3.18055e-015 -0 0.0149866 -9.31734e-005 -6.35116e-006 -1.59028e-015 -1.59028e-015 -3.18055e-015 -1.59028e-015 3.18055e-015 -0 0.0189931 -0.00119007 -5.92898e-005 4.77083e-015 1.59028e-015 -9.54166e-015 -1.59028e-015 3.18055e-015 -0 0.0122979 -0.00325697 -0.00067993 -1.59028e-015 -4.77083e-015 6.36111e-015 -1.59028e-015 3.18055e-015 -0 3.53113e-031 3.18055e-015 -6.36111e-015 -1.59028e-015 1.59028e-015 -0 -23.2076 -51.3969 -39.6663 5.3819 45.5133 -3.02559 -10.0197 50.0343 13.171 3.4941e-007 3.35097e-006 3.92085e-007 22.4539 -51.0419 38.7596 -5.55254 44.4979 3.40905 9.64627 49.3702 -12.8457 6.76976e-008 -3.37303e-008 1.99562e-007 
0.805104 16.7842 19.8524 178.468 -76.74 -1.20172 -0.0749744 -4.62153 -0.288409 -0.17423 -9.24255 -0.585782 -0.17423 -9.24258 -0.585782 0.173574 0.503665 0.0191725 1.11477e-008 0.0266147 -2.01574e-007 14.1019 0.902348 -10.8494 -17.9337 -16.5231 -33.3142 2.3319 7.96684 -52.1554 59.8322 -0.445517 -1.46621 3.44836e-033 -4.96962e-016 3.97569e-016 -2.06902e-033 -2.98177e-016 -3.97569e-016 -5.81399e-007 -6.17059e-007 -3.65431e-008 3.44836e-033 -4.96962e-016 3.97569e-016 -0.0145882 -8.80375e-005 -2.90012e-006 -1.54391e-007 -1.32006e-007 -2.95674e-007 3.44836e-033 -4.96962e-016 3.97569e-016 -0.0187679 -0.00117759 6.34417e-005 -5.81385e-007 -6.17052e-007 -3.66382e-008 3.44836e-033 -4.96962e-016 3.97569e-016 -0.0122835 -0.00325198 0.000675856 -5.81394e-007 -6.17049e-007 -3.65933e-008 3.44836e-033 -4.96962e-016 3.97569e-016 -2.06902e-033 -2.98177e-016 -3.97569e-016 -5.81399e-007 -6.17059e-007 -3.65431e-008 19.7005 0.708917 -0.603681 8.7941 9.7339 44.9882 -11.9701 -13.5572 30.5991 -59.4939 0.177081 1.00046 -1.59028e-015 -4.77083e-015 -0 5.29669e-031 -4.77083e-015 6.36111e-015 -0 -3.18055e-015 -0 -1.59028e-015 -4.77083e-015 -0 0.014974 -8.85891e-005 -9.77947e-006 1.59028e-015 0 3.18055e-015 -1.59028e-015 -4.77083e-015 -0 0.0190192 -0.00119205 -6.05267e-005 -3.18055e-015 1.59028e-015 1.90833e-014 -1.59028e-015 -4.77083e-015 -0 0.0122361 -0.00323791 -0.000671286 -1.59028e-015 1.59028e-015 3.18055e-015 -1.59028e-015 -4.77083e-015 -0 5.29669e-031 -4.77083e-015 6.36111e-015 -0 -3.18055e-015 -0 -21.3892 -49.3574 -37.1553 5.45379 44.8584 -3.0249 -8.92643 50.1596 12.1099 7.95139e-016 -6.36111e-015 -7.95139e-016 20.6198 -48.9335 36.2967 -5.56442 43.7349 4.4942 9.91243 49.3643 -13.5325 6.76708e-008 -3.38092e-008 1.99555e-007 
0.802462 16.3155 19.6091 178.352 -78.6212 -1.33808 -0.0780979 -4.45603 -0.28724 -0.1795 -8.9115 -0.583252 -0.1795 -8.91152 -0.583252 0.214307 0.648079 -0.0246528 2.01919e-007 -0.0396473 1.05058e-007 13.4848 1.72129 -11.8812 -17.775 -16.6326 -33.0345 2.33838 7.96929 -51.0531 59.7444 -0.666861 -2.20058 -1.59028e-015 1.98785e-016 -0 -1.59028e-015 -5.96354e-016 -0 -1.59028e-015 -5.96354e-016 -0 -1.59028e-015 1.98785e-016 -0 -0.0145919 -8.76899e-005 5.15018e-006 4.34628e-007 4.85341e-007 -2.52614e-007 -1.59028e-015 1.98785e-016 -0 -0.0187841 -0.00117899 6.23428e-005 -1.59028e-015 -6.95746e-016 7.95139e-016 -1.59028e-015 1.98785e-016 -0 -0.012228 -0.00323866 0.00067539 3.18055e-015 9.93923e-017 1.19271e-015 -1.59028e-015 1.98785e-016 -0 -1.59028e-015 -5.96354e-016 -0 -1.59028e-015 -5.96354e-016 -0 20.1887 1.15001 -0.0897476 8.72381 9.63035 44.4618 -11.9004 -13.5121 30.0059 -59.2404 0.269009 1.50035 -2.06368e-007 -2.15614e-007 -5.39994e-007 3.18055e-015 4.77083e-015 3.18055e-015 2.06368e-007 2.15614e-007 5.39994e-007 -2.06368e-007 -2.15614e-007 -5.39994e-007 0.0150239 -9.3475e-005 -1.24695e-006 1.59028e-015 -1.59028e-015 -0 -2.06368e-007 -2.15614e-007 -5.39994e-007 0.0189894 -0.00119147 -5.24555e-005 1.59028e-015 3.18055e-015 -0 -2.06368e-007 -2.15614e-007 -5.39994e-007 0.0122532 -0.00324345 -0.000668888 -1.59028e-015 4.77083e-015 -6.36111e-015 -2.06368e-007 -2.15614e-007 -5.39994e-007 3.18055e-015 4.77083e-015 3.18055e-015 2.06368e-007 2.15614e-007 5.39994e-007 -19.763 -47.2548 -34.8223 5.52601 44.2017 -4.16194 -9.1781 50.1039 12.801 -2.76654e-006 2.22071e-006 3.85856e-007 18.9798 -46.7613 34.0144 -5.57855 42.9705 4.42678 8.85125 49.5519 -12.4701 1.35262e-007 -6.77214e-008 3.99114e-007 
0.799913 15.848 19.3573 178.185 -80.5084 -1.52496 -0.0812028 -4.28958 -0.285976 -0.184726 -8.57868 -0.58052 -0.184726 -8.57869 -0.58052 0.255168 0.791627 -0.0685985 -2.78415e-008 -0.105908 1.5793e-007 12.8811 2.55272 -12.9067 -17.6156 -16.7414 -32.7543 2.34483 7.97188 -49.9496 59.6538 -0.887174 -2.93573 4.41391e-032 3.18055e-015 -7.95139e-016 1.59028e-015 3.47873e-015 -1.98785e-015 3.18055e-015 2.88238e-015 -0 4.41391e-032 3.18055e-015 -7.95139e-016 -0.0146007 -8.87759e-005 -4.96451e-007 -3.18055e-015 -2.08724e-015 1.19271e-015 4.41391e-032 3.18055e-015 -7.95139e-016 -0.0187854 -0.0011788 6.19953e-005 6.20706e-033 -2.98177e-016 1.19271e-015 4.41391e-032 3.18055e-015 -7.95139e-016 -0.0123038 -0.0032581 0.000682647 4.77083e-015 -1.98785e-016 7.95139e-016 4.41391e-032 3.18055e-015 -7.95139e-016 1.59028e-015 3.47873e-015 -1.98785e-015 3.18055e-015 2.88238e-015 -0 20.6733 1.59562 0.420858 8.65256 9.52744 43.9353 -11.8302 -13.4677 29.4126 -58.9876 0.363172 2.00001 -1.98202e-007 -2.20701e-007 -5.31875e-007 -6.76161e-007 -4.29628e-007 2.66482e-007 -3.18055e-015 1.59028e-015 3.18055e-015 -1.98202e-007 -2.20701e-007 -5.31875e-007 0.0149919 -9.0213e-005 1.51217e-006 7.95139e-015 -2.38542e-014 9.54166e-015 -1.98202e-007 -2.20701e-007 -5.31875e-007 0.018997 -0.00119101 -6.05372e-005 3.18055e-015 1.59028e-015 -3.18055e-015 -1.98202e-007 -2.20701e-007 -5.31875e-007 0.0122774 -0.00325352 -0.000674909 -1.59028e-015 4.77083e-015 3.18055e-015 -1.98202e-007 -2.20701e-007 -5.31875e-007 -6.76161e-007 -4.29628e-007 2.66482e-007 -3.18055e-015 1.59028e-015 3.18055e-015 -18.3108 -45.0972 -32.6484 5.59871 43.5438 -4.13225 -8.04971 50.2288 11.6939 -3.2066e-006 6.09985e-008 1.05374e-006 17.5145 -44.5334 31.8927 -5.59488 42.2049 4.35963 7.78068 49.7265 -11.3977 -2.96986e-007 -1.27017e-006 7.4849e-007 
0.797462 15.3822 19.0969 177.93 -82.4006 -1.80021 -0.0842863 -4.12243 -0.284607 -0.189905 -8.24442 -0.577564 -0.189905 -8.24439 -0.577564 0.296145 0.936269 -0.112658 7.70854e-008 -0.172188 2.82341e-007 12.2909 3.39622 -13.9258 -17.4556 -16.8494 -32.4737 2.35125 7.97462 -48.8451 59.5603 -1.10641 -3.67161 4.77083e-015 2.98177e-016 -0 3.18055e-015 -5.96354e-016 -0 1.59028e-015 -1.39149e-015 -3.97569e-016 4.77083e-015 2.98177e-016 -0 -0.0146464 -8.82091e-005 -3.21639e-006 4.45956e-007 4.84711e-007 -2.43197e-007 4.77083e-015 2.98177e-016 -0 -0.0187623 -0.0011765 5.63714e-005 -1.11319e-014 1.16289e-014 -1.98785e-015 4.77083e-015 2.98177e-016 -0 -0.0122615 -0.00324673 0.000683131 4.77083e-015 -2.38542e-015 -1.19271e-015 4.77083e-015 2.98177e-016 -0 3.18055e-015 -5.96354e-016 -0 1.59028e-015 -1.39149e-015 -3.97569e-016 21.1543 2.04582 0.928059 8.58038 9.42513 43.4087 -11.7595 -13.424 28.8191 -58.7356 0.459544 2.49935 -0 -1.59028e-015 -0 4.77083e-015 -1.59028e-015 -0 -1.59028e-015 0 3.18055e-015 -0 -1.59028e-015 -0 0.0149692 -9.11535e-005 1.06733e-006 -4.77083e-015 0 -3.18055e-015 -0 -1.59028e-015 -0 0.0189782 -0.00119071 -5.66267e-005 1.59028e-015 -6.36111e-015 -3.18055e-015 -0 -1.59028e-015 -0 0.0122949 -0.0032552 -0.00068951 -6.36111e-015 -1.59028e-015 -9.54166e-015 -0 -1.59028e-015 -0 4.77083e-015 -1.59028e-015 -0 -1.59028e-015 0 3.18055e-015 -17.0155 -42.8919 -30.6163 5.67189 42.8841 -4.10145 -6.91486 50.34 10.5796 -6.58265e-008 -3.23503e-008 -2.00407e-007 16.2065 -42.2575 29.9139 -5.61362 41.4382 4.29288 6.70149 49.8879 -10.3158 6.7524e-008 -3.38876e-008 1.99585e-007 
